<?xml version="1.0" standalone="no"?>
<!DOCTYPE svg PUBLIC "-//W3C//DTD SVG 1.1//EN" "http://www.w3.org/Graphics/SVG/1.1/DTD/svg11.dtd" >
<!--
2013-9-30: Created.
-->
<svg>
<metadata>
Created by iconfont
</metadata>
<defs>

<font id="iconfont" horiz-adv-x="1024" >
  <font-face
    font-family="iconfont"
    font-weight="500"
    font-stretch="normal"
    units-per-em="1024"
    ascent="896"
    descent="-128"
  />
    <missing-glyph />
    
    <glyph glyph-name="shouye" unicode="&#59873;" d="M736.256 51.2H290.816c-61.44 0-111.616 50.176-111.616 111.616V455.68c0 35.84 16.384 69.632 47.104 89.088l223.232 153.6c38.912 24.576 89.088 24.576 124.928 0l223.232-153.6c30.72-19.456 47.104-55.296 47.104-92.16v-289.792c3.072-61.44-47.104-111.616-108.544-111.616M251.904 510.976c-19.456-14.336-30.72-33.792-30.72-58.368v-289.792c0-38.912 30.72-69.632 69.632-69.632h445.44c38.912 0 69.632 30.72 69.632 69.632V455.68c0 22.528-11.264 45.056-30.72 58.368l-223.232 153.6c-22.528 16.384-55.296 16.384-77.824 0L251.904 510.976zM448.512 319.488h125.952c11.264 0 22.528-9.216 22.528-23.552 0-12.288-8.192-23.552-22.528-23.552H448.512c-11.264 0-22.528 9.216-22.528 23.552s9.216 23.552 22.528 23.552"  horiz-adv-x="1024" />

    
    <glyph glyph-name="xiaoxi" unicode="&#59874;" d="M509.952 51.2c-15.36 0-30.72 7.168-40.96 19.456l-34.816 41.984c-4.096 3.072-10.24 5.12-15.36 5.12H218.112c-37.888 0-69.632 30.72-69.632 69.632V624.64c0 37.888 30.72 69.632 69.632 69.632h587.776c37.888 0 69.632-30.72 69.632-69.632v-438.272c0-37.888-30.72-69.632-69.632-69.632H598.016c-5.12 0-10.24-1.024-15.36-4.096l-30.72-40.96c-10.24-13.312-24.576-20.48-40.96-20.48h-1.024zM218.112 652.288c-15.36 0-27.648-12.288-27.648-27.648v-438.272c0-15.36 12.288-27.648 27.648-27.648H419.84c15.36 0 30.72-5.12 43.008-14.336l2.048-1.024 37.888-46.08c3.072-3.072 6.144-4.096 8.192-4.096s6.144 1.024 8.192 4.096l33.792 45.056 2.048 2.048c12.288 9.216 27.648 14.336 43.008 14.336h208.896c15.36 0 27.648 12.288 27.648 27.648V624.64c0 15.36-12.288 27.648-27.648 27.648H218.112zM448.512 319.488h125.952c11.264 0 22.528-9.216 22.528-23.552 0-12.288-8.192-23.552-22.528-23.552H448.512c-11.264 0-22.528 9.216-22.528 23.552s9.216 23.552 22.528 23.552"  horiz-adv-x="1024" />

    
    <glyph glyph-name="yuyin" unicode="&#59875;" d="M807.936 494.592c-17.408 41.984-43.008 78.848-74.752 110.592s-69.632 57.344-110.592 74.752c-43.008 18.432-89.088 26.624-136.192 26.624s-92.16-9.216-136.192-26.624c-41.984-17.408-78.848-43.008-110.592-74.752s-57.344-69.632-74.752-110.592c-18.432-43.008-26.624-89.088-26.624-136.192s9.216-92.16 26.624-136.192c17.408-41.984 43.008-78.848 74.752-110.592 31.744-31.744 69.632-57.344 110.592-74.752 43.008-18.432 89.088-26.624 136.192-26.624s92.16 9.216 136.192 26.624c41.984 17.408 77.824 43.008 110.592 74.752s57.344 69.632 74.752 110.592c18.432 43.008 26.624 89.088 26.624 136.192s-8.192 92.16-26.624 136.192z m-38.912-254.976c-15.36-36.864-37.888-69.632-66.56-97.28s-61.44-50.176-97.28-66.56c-37.888-15.36-77.824-24.576-118.784-24.576s-81.92 8.192-118.784 24.576c-36.864 15.36-69.632 37.888-97.28 66.56s-50.176 60.416-66.56 97.28c-15.36 37.888-24.576 78.848-24.576 118.784s8.192 81.92 24.576 118.784c15.36 36.864 37.888 69.632 66.56 97.28s61.44 50.176 97.28 66.56c37.888 15.36 77.824 24.576 118.784 24.576s81.92-8.192 118.784-24.576c36.864-15.36 69.632-37.888 97.28-66.56s50.176-61.44 66.56-97.28c15.36-37.888 24.576-77.824 24.576-118.784s-8.192-81.92-24.576-118.784zM402.432 466.944c-11.264 0-20.48-9.216-20.48-20.48v-177.152c0-11.264 9.216-20.48 20.48-20.48s20.48 9.216 20.48 20.48V447.488c0 10.24-9.216 19.456-20.48 19.456z m83.968 65.536c-11.264 0-20.48-9.216-20.48-20.48v-307.2c0-11.264 9.216-20.48 20.48-20.48 10.24 0 20.48 9.216 20.48 20.48v307.2c0 11.264-9.216 20.48-20.48 20.48zM317.44 423.936c-11.264 0-20.48-9.216-20.48-20.48v-90.112c0-11.264 9.216-20.48 20.48-20.48 10.24 0 20.48 9.216 20.48 20.48v90.112c0 10.24-9.216 20.48-20.48 20.48z m252.928 43.008c-11.264 0-20.48-9.216-20.48-20.48v-177.152c0-11.264 9.216-20.48 20.48-20.48s20.48 9.216 20.48 20.48V447.488c0 10.24-9.216 19.456-20.48 19.456z m84.992-43.008c-11.264 0-20.48-9.216-20.48-20.48v-90.112c0-11.264 9.216-20.48 20.48-20.48 10.24 0 20.48 9.216 20.48 20.48v90.112c-1.024 10.24-9.216 20.48-20.48 20.48z"  horiz-adv-x="1024" />

    
    <glyph glyph-name="gongzuotai" unicode="&#59876;" d="M766.976 702.464H257.024c-51.2 0-93.184-41.984-93.184-93.184v-363.52c0-51.2 41.984-93.184 93.184-93.184h509.952c51.2 0 93.184 41.984 93.184 93.184V609.28c0 51.2-41.984 93.184-93.184 93.184zM819.2 245.76c0-28.672-23.552-52.224-52.224-52.224H257.024c-28.672 0-52.224 23.552-52.224 52.224V609.28c0 28.672 23.552 52.224 52.224 52.224h509.952c28.672 0 52.224-23.552 52.224-52.224v-363.52zM691.2 105.472h-358.4c-8.192 0-14.336-9.216-14.336-20.48s6.144-20.48 14.336-20.48h358.4c8.192 0 14.336 9.216 14.336 20.48s-6.144 20.48-14.336 20.48zM391.168 308.224h-9.216c-8.192 0-16.384 7.168-16.384 16.384V429.056c0 8.192 7.168 16.384 16.384 16.384h9.216c8.192 0 16.384-7.168 16.384-16.384v-104.448c0-9.216-7.168-16.384-16.384-16.384z m122.88 0c-11.264 0-20.48 9.216-20.48 20.48V560.128c0 11.264 9.216 20.48 20.48 20.48s20.48-9.216 20.48-20.48v-232.448c1.024-10.24-8.192-19.456-20.48-19.456z m128 0h-9.216c-8.192 0-16.384 7.168-16.384 16.384V429.056c0 8.192 7.168 16.384 16.384 16.384h9.216c8.192 0 16.384-7.168 16.384-16.384v-104.448c-1.024-9.216-8.192-16.384-16.384-16.384z"  horiz-adv-x="1024" />

    
    <glyph glyph-name="wuliu" unicode="&#59877;" d="M888.832 343.04l-95.232 139.264-3.072 3.072c-7.168 8.192-13.312 16.384-17.408 16.384h-96.256V636.928c0 15.36-5.12 20.48-20.48 20.48H152.576c-15.36 0-20.48-5.12-20.48-20.48v-373.76c0-17.408 6.144-34.816 20.48-34.816h38.912v-9.216c0-59.392 48.128-107.52 107.52-107.52s107.52 48.128 107.52 107.52v9.216h212.992v-9.216c0-59.392 48.128-107.52 107.52-107.52s107.52 48.128 107.52 107.52v9.216h38.912c14.336 0 19.456 18.432 19.456 34.816v72.704c-2.048 3.072-2.048 5.12-4.096 7.168zM297.984 151.552c-36.864 0-67.584 30.72-67.584 67.584s30.72 67.584 67.584 67.584 67.584-30.72 67.584-67.584-30.72-67.584-67.584-67.584z m338.944 129.024c-3.072-4.096-5.12-8.192-7.168-12.288H393.216c-18.432 35.84-55.296 58.368-95.232 58.368s-76.8-22.528-95.232-58.368h-30.72v348.16h464.896v-310.272c1.024-3.072 1.024-16.384 0-25.6z m89.088-129.024c-36.864 0-67.584 30.72-67.584 67.584s30.72 67.584 67.584 67.584 67.584-30.72 67.584-67.584c-1.024-36.864-30.72-67.584-67.584-67.584z m124.928 116.736h-29.696c-18.432 35.84-55.296 58.368-95.232 58.368-16.384 0-32.768-4.096-48.128-11.264V460.8h76.8l96.256-135.168v-57.344zM335.872 489.472h125.952c11.264 0 22.528-9.216 22.528-23.552 0-12.288-8.192-23.552-22.528-23.552H335.872c-11.264 0-22.528 9.216-22.528 23.552s10.24 23.552 22.528 23.552"  horiz-adv-x="1024" />

    
    <glyph glyph-name="wode2" unicode="&#59878;" d="M512 408.576c102.4 0 185.344 83.968 185.344 185.344S614.4 780.288 512 780.288s-185.344-83.968-185.344-185.344S410.624 408.576 512 408.576zM370.688 593.92c0 78.848 63.488 141.312 141.312 141.312s141.312-63.488 141.312-141.312S590.848 452.608 512 452.608s-141.312 63.488-141.312 141.312z m427.008-606.208H227.328c-34.816 0-63.488 30.72-63.488 68.608V291.84c0 37.888 28.672 68.608 63.488 68.608h569.344c34.816 0 63.488-30.72 63.488-68.608v-235.52c1.024-37.888-28.672-68.608-62.464-68.608zM227.328 312.32c-10.24 0-19.456-9.216-19.456-21.504v-235.52c0-11.264 9.216-21.504 19.456-21.504h569.344c10.24 0 19.456 9.216 19.456 21.504V291.84c0 11.264-9.216 21.504-19.456 21.504 0-1.024-569.344-1.024-569.344-1.024zM434.176 237.568H292.864c-15.36 0-25.6-10.24-25.6-26.624 0-15.36 12.288-26.624 25.6-26.624h142.336c15.36 0 25.6 12.288 25.6 26.624-1.024 16.384-13.312 26.624-26.624 26.624z"  horiz-adv-x="1024" />

    
    <glyph glyph-name="dingdan" unicode="&#59879;" d="M757.76 716.8H266.24c-48.128 0-87.04-38.912-87.04-87.04v-491.52c0-48.128 38.912-87.04 87.04-87.04h491.52c48.128 0 87.04 38.912 87.04 87.04V629.76c0 48.128-38.912 87.04-87.04 87.04zM804.864 138.24c0-26.624-21.504-48.128-48.128-48.128H266.24c-26.624 0-48.128 21.504-48.128 48.128V629.76c0 26.624 21.504 48.128 48.128 48.128h491.52c26.624 0 48.128-21.504 48.128-48.128l-1.024-491.52zM417.792 456.704H299.008c-13.312 0-21.504-8.192-21.504-22.528s10.24-22.528 21.504-22.528h117.76c13.312 0 21.504 11.264 21.504 22.528 0 14.336-10.24 22.528-20.48 22.528zM571.392 509.952H299.008c-12.288 0-22.528 10.24-22.528 22.528 0 12.288 10.24 22.528 22.528 22.528h273.408c12.288 0 22.528-10.24 22.528-22.528-1.024-12.288-11.264-22.528-23.552-22.528z"  horiz-adv-x="1024" />

    
    <glyph glyph-name="zhaopin" unicode="&#59880;" d="M786.432 608.256H716.8v22.528c0 22.528-9.216 61.44-67.584 61.44H374.784c-58.368 0-67.584-37.888-67.584-61.44v-22.528h-69.632c-40.96 0-73.728-33.792-73.728-73.728v-384c0-40.96 33.792-73.728 73.728-73.728h548.864c19.456 0 38.912 7.168 52.224 22.528 13.312 13.312 21.504 32.768 21.504 52.224V534.528c0 40.96-32.768 73.728-73.728 73.728z m-411.648 44.032h274.432c26.624 0 28.672-8.192 28.672-21.504v-22.528H347.136v22.528c0 12.288 1.024 21.504 27.648 21.504zM201.728 534.528c0 19.456 16.384 35.84 35.84 35.84h548.864c19.456 0 35.84-16.384 35.84-35.84v-384c0-19.456-16.384-35.84-35.84-35.84H237.568c-19.456 0-35.84 16.384-35.84 35.84V534.528zM451.584 372.736h118.784c13.312 0 21.504 10.24 21.504 22.528 0 13.312-10.24 22.528-21.504 22.528H451.584c-12.288 0-21.504-8.192-21.504-22.528s11.264-22.528 21.504-22.528z"  horiz-adv-x="1024" />

    
    <glyph glyph-name="saoyisao" unicode="&#59881;" d="M400.384 684.032h-133.12c-49.152 0-88.064-39.936-88.064-88.064v-133.12c0-1.024 0-21.504 21.504-21.504s21.504 20.48 21.504 21.504v133.12c0 25.6 20.48 46.08 46.08 46.08h133.12c1.024 0 21.504 0 21.504 21.504-1.024 19.456-21.504 20.48-22.528 20.48zM756.736 684.032h-133.12c-1.024 0-21.504 0-21.504-21.504s20.48-21.504 21.504-21.504h133.12c25.6 0 46.08-20.48 46.08-46.08v-133.12c0-1.024 0-21.504 21.504-21.504s21.504 20.48 21.504 21.504v133.12c-1.024 49.152-40.96 89.088-89.088 89.088zM400.384 126.976h-133.12c-25.6 0-46.08 20.48-46.08 46.08v133.12c0 1.024 0 21.504-21.504 21.504s-21.504-20.48-21.504-21.504v-133.12c0-49.152 39.936-88.064 88.064-88.064h133.12c1.024 0 21.504 0 21.504 21.504 1.024 20.48-19.456 20.48-20.48 20.48zM823.296 327.68c-21.504 0-21.504-20.48-21.504-21.504v-133.12c0-25.6-20.48-46.08-46.08-46.08h-133.12c-1.024 0-21.504 0-21.504-21.504s20.48-21.504 21.504-21.504h133.12c49.152 0 88.064 39.936 88.064 88.064v133.12c1.024 2.048 1.024 22.528-20.48 22.528zM448.512 407.552h125.952c11.264 0 22.528-9.216 22.528-23.552 0-12.288-8.192-23.552-22.528-23.552H448.512c-11.264 0-22.528 9.216-22.528 23.552s10.24 23.552 22.528 23.552"  horiz-adv-x="1024" />

    
    <glyph glyph-name="youhuiquan" unicode="&#59882;" d="M812.032 651.264H211.968c-47.104 0-83.968-36.864-83.968-83.968v-137.216h21.504c21.504 0 41.984-19.456 41.984-44.032 0-23.552-19.456-45.056-41.984-45.056h-21.504v-139.264c0-47.104 36.864-83.968 83.968-83.968h599.04c47.104 0 83.968 36.864 83.968 83.968V339.968h-19.456c-21.504 0-41.984 19.456-41.984 45.056 0 23.552 19.456 44.032 41.984 44.032h19.456V569.344c-2.048 45.056-38.912 81.92-82.944 81.92z m38.912-182.272c-33.792-8.192-60.416-41.984-60.416-81.92s26.624-71.68 60.416-81.92v-100.352c0-23.552-19.456-41.984-41.984-41.984H209.92c-23.552 0-41.984 19.456-41.984 41.984V302.08c41.984 5.12 63.488 44.032 63.488 83.968s-26.624 75.776-63.488 83.968v95.232c0 23.552 19.456 41.984 41.984 41.984H808.96c23.552 0 41.984-19.456 41.984-41.984 1.024 0 0-96.256 0-96.256zM573.44 385.024H450.56c-13.312 0-22.528-8.192-22.528-23.552s10.24-23.552 22.528-23.552h120.832c13.312 0 22.528 11.264 22.528 23.552 0 14.336-10.24 23.552-20.48 23.552z"  horiz-adv-x="1024" />

    
    <glyph glyph-name="wenjian" unicode="&#59883;" d="M479.232 612.352l13.312-51.2 8.192-31.744h303.104v-374.784H221.184V612.352h258.048m0 41.984H221.184c-22.528 0-41.984-18.432-41.984-41.984v-457.728c0-22.528 18.432-41.984 41.984-41.984h582.656c22.528 0 41.984 18.432 41.984 41.984V529.408c0 22.528-18.432 41.984-41.984 41.984H532.48l-13.312 51.2c-4.096 18.432-20.48 31.744-39.936 31.744zM421.888 561.152H279.552c-15.36 0-25.6-10.24-25.6-26.624 0-15.36 12.288-26.624 25.6-26.624h142.336c15.36 0 25.6 12.288 25.6 26.624-1.024 16.384-13.312 26.624-25.6 26.624z"  horiz-adv-x="1024" />

    
    <glyph glyph-name="gouwu" unicode="&#59884;" d="M757.76 716.8H266.24c-48.128 0-87.04-38.912-87.04-87.04v-491.52c0-48.128 38.912-87.04 87.04-87.04h491.52c48.128 0 87.04 38.912 87.04 87.04V629.76c0 48.128-38.912 87.04-87.04 87.04zM804.864 138.24c0-26.624-21.504-48.128-48.128-48.128H266.24c-26.624 0-48.128 21.504-48.128 48.128V629.76c0 26.624 21.504 48.128 48.128 48.128h491.52c26.624 0 48.128-21.504 48.128-48.128l-1.024-491.52zM606.208 569.344c-8.192 4.096-18.432 2.048-22.528-6.144-14.336-25.6-41.984-40.96-71.68-40.96s-56.32 15.36-71.68 40.96c-4.096 8.192-14.336 10.24-22.528 6.144s-10.24-14.336-6.144-22.528c20.48-35.84 58.368-57.344 100.352-57.344 40.96 0 79.872 22.528 100.352 57.344 4.096 7.168 2.048 17.408-6.144 22.528"  horiz-adv-x="1024" />

    
    <glyph glyph-name="kecheng" unicode="&#59885;" d="M757.76 716.8H266.24c-48.128 0-87.04-38.912-87.04-87.04v-491.52c0-48.128 38.912-87.04 87.04-87.04h491.52c48.128 0 87.04 38.912 87.04 87.04V629.76c0 48.128-38.912 87.04-87.04 87.04zM804.864 138.24c0-26.624-21.504-48.128-48.128-48.128H266.24c-26.624 0-48.128 21.504-48.128 48.128V629.76c0 26.624 21.504 48.128 48.128 48.128h491.52c26.624 0 48.128-21.504 48.128-48.128l-1.024-491.52zM571.392 323.584H452.608c-13.312 0-21.504-8.192-21.504-22.528s10.24-22.528 21.504-22.528h117.76c13.312 0 21.504 11.264 21.504 22.528 0 14.336-10.24 22.528-20.48 22.528z"  horiz-adv-x="1024" />

    
    <glyph glyph-name="faxian" unicode="&#59886;" d="M512 30.72C317.44 30.72 158.72 189.44 158.72 384S317.44 737.28 512 737.28 865.28 578.56 865.28 384 706.56 30.72 512 30.72z m0 665.6c-172.032 0-312.32-140.288-312.32-312.32S339.968 71.68 512 71.68 824.32 211.968 824.32 384 684.032 696.32 512 696.32zM409.6 206.848l140.288 155.648L614.4 561.152 474.112 405.504 409.6 206.848z"  horiz-adv-x="1024" />

    
    <glyph glyph-name="daohang" unicode="&#59887;" d="M715.776 637.952c-112.64 112.64-294.912 112.64-407.552 0-54.272-54.272-83.968-126.976-83.968-203.776s29.696-149.504 83.968-203.776l171.008-171.008c8.192-8.192 20.48-13.312 32.768-13.312 12.288 0 24.576 5.12 32.768 13.312L715.776 230.4c112.64 112.64 112.64 294.912 0 407.552z m46.08-203.776c0-66.56-25.6-129.024-72.704-177.152L518.144 86.016c-3.072-3.072-8.192-3.072-11.264 0L334.848 257.024c-47.104 47.104-72.704 109.568-72.704 177.152 0 66.56 25.6 129.024 72.704 177.152 47.104 47.104 109.568 72.704 177.152 72.704 66.56 0 129.024-25.6 177.152-72.704 47.104-48.128 72.704-110.592 72.704-177.152zM509.952 535.552c-57.344 0-103.424-46.08-103.424-103.424s46.08-103.424 103.424-103.424 103.424 46.08 103.424 103.424-46.08 103.424-103.424 103.424z m65.536-104.448c0-35.84-29.696-64.512-65.536-64.512s-65.536 29.696-65.536 65.536 29.696 65.536 65.536 65.536v5.12-5.12c17.408 0 33.792-7.168 46.08-19.456 12.288-13.312 19.456-29.696 19.456-47.104z"  horiz-adv-x="1024" />

    
    <glyph glyph-name="mima" unicode="&#59888;" d="M750.592 470.016h-22.528v43.008c0 57.344-22.528 111.616-63.488 152.576-61.44 62.464-155.648 79.872-235.52 46.08-25.6-11.264-49.152-26.624-68.608-46.08-39.936-39.936-63.488-95.232-63.488-152.576v-43.008h-22.528c-34.816 0-63.488-28.672-63.488-63.488v-304.128c0-34.816 28.672-63.488 63.488-63.488h477.184c34.816 0 63.488 28.672 63.488 63.488V406.528c-1.024 35.84-29.696 63.488-64.512 63.488z m-413.696 43.008c0 46.08 18.432 90.112 51.2 123.904 32.768 32.768 76.8 51.2 123.904 51.2 46.08 0 90.112-18.432 123.904-51.2 32.768-32.768 51.2-76.8 51.2-123.904v-43.008H336.896v43.008z m436.224-410.624c0-12.288-10.24-22.528-22.528-22.528H273.408c-12.288 0-22.528 10.24-22.528 22.528V406.528c0 12.288 10.24 22.528 22.528 22.528h477.184c12.288 0 22.528-10.24 22.528-22.528v-304.128zM512 194.56c-11.264 0-21.504 9.216-21.504 20.48v70.656c0 11.264 9.216 20.48 20.48 20.48s20.48-9.216 20.48-20.48v-70.656c1.024-11.264-8.192-20.48-19.456-20.48z"  horiz-adv-x="1024" />

    
    <glyph glyph-name="shoucang" unicode="&#59889;" d="M688.128 51.2c-9.216 0-20.48 3.072-30.72 8.192l-145.408 71.68-145.408-71.68c-9.216-5.12-19.456-7.168-30.72-7.168-14.336 0-27.648 4.096-38.912 12.288-20.48 15.36-30.72 41.984-25.6 65.536l29.696 154.624-114.688 106.496c-17.408 17.408-24.576 44.032-17.408 67.584v1.024c8.192 24.576 28.672 41.984 54.272 46.08l158.72 28.672 71.68 144.384c11.264 22.528 34.816 37.888 59.392 37.888 25.6 0 49.152-15.36 59.392-37.888l70.656-144.384L801.792 506.88c25.6-4.096 46.08-21.504 53.248-46.08 8.192-23.552 1.024-50.176-16.384-68.608L722.944 284.672l28.672-154.624c5.12-24.576-5.12-50.176-25.6-65.536-10.24-8.192-24.576-13.312-37.888-13.312zM512 174.08l161.792-80.896c5.12-2.048 10.24-4.096 14.336-4.096 6.144 0 11.264 2.048 15.36 5.12l1.024 1.024c9.216 7.168 13.312 17.408 11.264 28.672l-32.768 175.104 129.024 120.832c8.192 8.192 10.24 19.456 7.168 29.696v1.024c-3.072 10.24-11.264 17.408-21.504 19.456h-1.024l-178.176 30.72-79.872 162.816c-4.096 9.216-14.336 15.36-24.576 15.36s-20.48-6.144-25.6-16.384l-79.872-161.792-179.2-32.768c-11.264-1.024-19.456-8.192-23.552-19.456-3.072-10.24 0-22.528 8.192-30.72l129.024-119.808-33.792-175.104c-2.048-10.24 3.072-21.504 11.264-28.672 4.096-3.072 10.24-5.12 16.384-5.12 5.12 0 9.216 1.024 13.312 3.072h1.024l160.768 81.92zM582.656 382.976c-6.144 3.072-13.312 1.024-17.408-4.096-11.264-19.456-31.744-30.72-53.248-30.72-22.528 0-43.008 12.288-53.248 30.72-3.072 6.144-11.264 8.192-17.408 4.096-6.144-3.072-8.192-11.264-4.096-17.408C452.608 338.944 481.28 322.56 512 322.56s59.392 16.384 74.752 43.008c4.096 6.144 2.048 13.312-4.096 17.408"  horiz-adv-x="1024" />

    
    <glyph glyph-name="sousuo" unicode="&#59890;" d="M455.68 660.48c59.392 0 114.688-22.528 155.648-64.512 41.984-41.984 64.512-97.28 64.512-155.648s-22.528-114.688-64.512-155.648S515.072 220.16 455.68 220.16s-114.688 22.528-155.648 64.512c-41.984 41.984-64.512 97.28-64.512 155.648s22.528 114.688 64.512 155.648S396.288 660.48 455.68 660.48m0 40.96c-66.56 0-134.144-25.6-184.32-76.8-102.4-102.4-102.4-267.264 0-368.64 51.2-51.2 117.76-76.8 184.32-76.8s134.144 25.6 184.32 76.8c102.4 102.4 102.4 267.264 0 368.64-51.2 51.2-117.76 76.8-184.32 76.8zM311.296 467.968h-3.072c-8.192 2.048-12.288 9.216-11.264 17.408 6.144 25.6 19.456 50.176 37.888 68.608 12.288 12.288 27.648 22.528 44.032 29.696 7.168 3.072 15.36 0 19.456-7.168 3.072-7.168 0-15.36-7.168-19.456-13.312-6.144-24.576-13.312-34.816-23.552-15.36-15.36-25.6-33.792-30.72-55.296-2.048-5.12-8.192-10.24-14.336-10.24zM794.624 72.704L613.376 253.952c-8.192 8.192-8.192 20.48 0 28.672s20.48 8.192 28.672 0l181.248-181.248c8.192-8.192 8.192-20.48 0-28.672-8.192-8.192-20.48-8.192-28.672 0z"  horiz-adv-x="1024" />

    
    <glyph glyph-name="wode" unicode="&#59891;" d="M512 181.248c-152.576 0-276.48 123.904-276.48 276.48s123.904 276.48 276.48 276.48 276.48-123.904 276.48-276.48-123.904-276.48-276.48-276.48z m0 512c-130.048 0-235.52-105.472-235.52-235.52s105.472-234.496 235.52-234.496 235.52 105.472 235.52 234.496-105.472 235.52-235.52 235.52zM633.856 63.488H410.624c-12.288 0-21.504 10.24-21.504 21.504v3.072c0 12.288 10.24 21.504 21.504 21.504h222.208c12.288 0 21.504-10.24 21.504-21.504v-3.072c1.024-11.264-9.216-21.504-20.48-21.504z"  horiz-adv-x="1024" />

    
    <glyph glyph-name="xihuan" unicode="&#59892;" d="M492.544 87.04L207.872 371.712c-72.704 72.704-72.704 189.44 0 262.144s189.44 72.704 262.144 0l41.984-41.984 41.984 41.984c71.68 71.68 187.392 72.704 260.096 2.048l2.048-2.048c72.704-72.704 72.704-189.44 0-262.144L531.456 87.04c-5.12-5.12-12.288-8.192-19.456-8.192-7.168 1.024-14.336 3.072-19.456 8.192z m19.456 38.912l275.456 275.456c56.32 56.32 56.32 147.456 0 203.776l-2.048 2.048c-56.32 54.272-146.432 54.272-201.728-2.048l-41.984-41.984c-16.384-16.384-41.984-16.384-58.368 0l-41.984 41.984c-56.32 56.32-147.456 56.32-203.776 0s-56.32-147.456 0-203.776L512 125.952zM664.576 556.032c1.024-5.12 7.168-8.192 12.288-7.168 16.384 4.096 34.816 0 47.104-12.288s17.408-29.696 12.288-47.104c-1.024-5.12 2.048-10.24 7.168-12.288 5.12-1.024 10.24 2.048 12.288 7.168 6.144 23.552 0 48.128-17.408 65.536s-41.984 23.552-65.536 17.408c-7.168-1.024-10.24-6.144-8.192-11.264"  horiz-adv-x="1024" />

    


  </font>
</defs>
</svg>
